<?xml version="1.0" encoding="UTF-8" standalone="no"?>
<svg
   xmlns:osb="http://www.openswatchbook.org/uri/2009/osb"
   xmlns:dc="http://purl.org/dc/elements/1.1/"
   xmlns:cc="http://creativecommons.org/ns#"
   xmlns:rdf="http://www.w3.org/1999/02/22-rdf-syntax-ns#"
   xmlns:svg="http://www.w3.org/2000/svg"
   xmlns="http://www.w3.org/2000/svg"
   id="svg8"
   version="1.1"
   viewBox="0 0 67.733332 67.733335"
   height="256"
   width="256">
  <defs
     id="defs2">
    <linearGradient
       osb:paint="solid"
       id="linearGradient12841">
      <stop
         id="stop12839"
         offset="0"
         style="stop-color:#26262f;stop-opacity:1;" />
    </linearGradient>
    <symbol
       style="stroke-linejoin:miter;stroke-miterlimit:10"
       id="RoundedBalloon">
      <title
         id="title4692">Rounded Balloon</title>
      <rect
         id="rect4694"
         style="stroke:none;stroke-width:0.26458332"
         rx="8.4666662"
         height="31.75"
         width="66.145836"
         y="17.197916"
         x="21.166666" />
      <path
         id="path4696"
         style="stroke:none;stroke-width:0.26458332"
         d="m 32.808333,47.360417 -7.9375,14.022916 20.6375,-14.022916" />
      <rect
         id="rect4698"
         style="fill:#eeeeee;stroke-width:0.92604166"
         rx="7.9375"
         height="31.75"
         width="66.145836"
         y="15.875"
         x="19.84375" />
      <path
         id="path4700"
         style="fill:#eeeeee;stroke-width:0.92604166"
         d="M 31.75,46.302083 23.8125,60.325 44.45,46.302083" />
      <rect
         id="rect4702"
         style="fill:#ffffff;stroke:none;stroke-width:0.26458332"
         rx="6.6145835"
         height="27.78125"
         width="62.177082"
         y="17.197916"
         x="21.166666" />
      <path
         id="path4704"
         style="fill:#ffffff;stroke:none;stroke-width:0.26458332"
         d="M 34.925,42.333333 26.9875,56.35625 47.625,42.333333" />
    </symbol>
    <symbol
       style="stroke-linejoin:miter;stroke-miterlimit:10"
       id="SquaredBalloon">
      <title
         id="title4707">Squared Balloon</title>
      <rect
         id="rect4709"
         style="stroke:none;stroke-width:0.26458332"
         rx="4.4979167"
         height="37.041668"
         width="66.145836"
         y="17.197916"
         x="21.166666" />
      <path
         id="path4711"
         style="stroke:none;stroke-width:0.26458332"
         d="m 33.3375,52.652083 6.614583,11.377084 7.9375,-11.377084" />
      <rect
         id="rect4713"
         style="fill:#eeeeee;stroke-width:0.92604166"
         rx="3.96875"
         height="37.041668"
         width="66.145836"
         y="15.875"
         x="19.84375" />
      <path
         id="path4715"
         style="fill:#eeeeee;stroke-width:0.92604166"
         d="m 31.75,51.59375 6.614583,11.377083 7.9375,-11.377083" />
      <rect
         id="rect4717"
         style="fill:#ffffff;stroke:none;stroke-width:0.26458332"
         rx="2.6458333"
         height="33.072918"
         width="62.177082"
         y="17.197916"
         x="21.166666" />
      <path
         id="path4719"
         style="fill:#ffffff;stroke:none;stroke-width:0.26458332"
         d="M 31.220833,47.625 37.835417,59.002083 45.772917,47.625" />
    </symbol>
    <symbol
       style="stroke-linejoin:miter;stroke-miterlimit:10"
       id="HipBalloon">
      <title
         id="title4737">Hip Balloon</title>
      <path
         id="path4739"
         style="stroke:none;stroke-width:0.26458332"
         d="m 25.664583,17.197917 h 57.15 c 2.38125,0 4.497917,2.010833 4.497917,4.497916 0,0 -3.704167,9.260417 -3.704167,14.022917 0,4.7625 3.704167,14.022917 3.704167,14.022917 0,2.38125 -2.116667,4.497916 -4.497917,4.497916 h -57.15 c -2.487083,0 -4.497916,-2.116666 -4.497916,-4.497916 0,0 3.704166,-9.260417 3.704166,-14.022917 0,-4.7625 -3.704166,-14.022917 -3.704166,-14.022917 0,-2.487083 2.010833,-4.497916 4.497916,-4.497916 z" />
      <path
         id="path4741"
         style="stroke:none;stroke-width:0.26458332"
         d="m 33.3375,52.652083 -1.322917,11.377084 15.875,-11.377084" />
      <path
         id="path4743"
         style="fill:#eeeeee;stroke-width:0.92604166"
         d="m 23.8125,15.875 h 57.15 c 2.38125,0 4.497917,2.010833 4.497917,4.497917 0,0 -3.704167,9.260416 -3.704167,14.022916 0,4.7625 3.704167,14.022917 3.704167,14.022917 0,2.38125 -2.116667,4.497917 -4.497917,4.497917 h -57.15 c -2.487083,0 -4.497917,-2.116667 -4.497917,-4.497917 0,0 3.704167,-9.260417 3.704167,-14.022917 0,-4.7625 -3.704167,-14.022916 -3.704167,-14.022916 0,-2.487084 2.010834,-4.497917 4.497917,-4.497917 z" />
      <path
         id="path4745"
         style="fill:#eeeeee;stroke-width:0.92604166"
         d="m 31.75,51.59375 -1.322917,11.377083 15.875,-11.377083" />
      <path
         id="path4747"
         style="fill:#ffffff;stroke:none;stroke-width:0.26458332"
         d="m 23.8125,17.197917 h 56.885417 c 1.5875,0 2.645833,1.190625 2.645833,2.645833 0,0 -3.704167,9.525 -3.704167,14.022917 0,4.7625 3.704167,13.758333 3.704167,13.758333 0,1.5875 -1.058333,2.645833 -2.645833,2.645833 H 23.8125 c -1.455208,0 -2.645833,-1.058333 -2.645833,-2.645833 0,0 3.704166,-8.995833 3.704166,-13.758333 0,-4.497917 -3.704166,-14.022917 -3.704166,-14.022917 0,-1.455208 1.190625,-2.645833 2.645833,-2.645833 z" />
      <path
         id="path4749"
         style="fill:#ffffff;stroke:none;stroke-width:0.26458332"
         d="M 32.808333,47.625 31.485417,59.002083 47.360417,47.625" />
    </symbol>
    <symbol
       id="Extract">
      <title
         id="title4391">Extract</title>
      <desc
         id="desc4393">Removal of one or more specific sets of times from a set. (ISO)</desc>
      <path
         id="path4395"
         style="stroke-width:0.52916664"
         d="M 9.2604167,30.427083 19.84375,11.90625 30.427083,30.427083 Z" />
    </symbol>
  </defs>
  <metadata
     id="metadata5">
    <rdf:RDF>
      <cc:Work
         rdf:about="">
        <dc:format>image/svg+xml</dc:format>
        <dc:type
           rdf:resource="http://purl.org/dc/dcmitype/StillImage" />
        <dc:title></dc:title>
      </cc:Work>
    </rdf:RDF>
  </metadata>
  <g
     id="layer4" />
  <g
     transform="translate(0,-229.26665)"
     id="layer1" />
  <g
     id="layer3" />
  <g
     id="layer2">
    <rect
       ry="4.6702256"
       rx="4.8961973"
       y="10.234824"
       x="2.2558239"
       height="40.094921"
       width="64.46212"
       id="rect13726"
       style="opacity:1;fill:#99c24d;fill-opacity:1;stroke:none;stroke-width:0.25304097;stroke-opacity:1;paint-order:normal" />
    <path
       transform="matrix(1.0386866,0,0,0.86184075,1.8713152,7.0090075)"
       d="m 9.502446,48.295494 9.049324,-0.05817 9.049324,-0.05818 -4.474281,7.866033 -4.47428,7.866032 -4.575044,-7.807857 z"
       id="path13732"
       style="opacity:1;fill:#99c24d;fill-opacity:1;stroke:none;stroke-width:0.26458332;stroke-opacity:1;paint-order:normal" />
    <rect
       ry="4.8198504"
       rx="4.8828111"
       y="7.4036388"
       x="0.88918561"
       height="41.379482"
       width="64.285873"
       id="rect13726-2"
       style="opacity:1;fill:#2d2d2f;fill-opacity:1;stroke:none;stroke-width:0.25671083;stroke-opacity:1;paint-order:normal" />
    <path
       transform="matrix(1.1350323,0,0,0.96947803,-2.7044556,-0.02537935)"
       d="m 9.502446,48.295494 9.049324,-0.05817 9.049324,-0.05818 -4.474281,7.866033 -4.47428,7.866032 -4.575044,-7.807857 z"
       id="path13732-3"
       style="opacity:1;fill:#2d2d2f;fill-opacity:1;stroke:none;stroke-width:0.26458332;stroke-opacity:1;paint-order:normal" />
    <rect
       ry="3.9032614"
       rx="4.176374"
       y="10.951767"
       x="5.3991351"
       height="33.510353"
       width="54.9851"
       id="rect13726-2-7"
       style="opacity:1;fill:#e2e8ed;fill-opacity:1;stroke:none;stroke-width:0.21365148;stroke-opacity:1;paint-order:normal" />
    <rect
       ry="3.6141284"
       rx="3.9633596"
       y="10.951767"
       x="5.3991351"
       height="31.028086"
       width="52.180607"
       id="rect13726-2-7-5"
       style="opacity:1;fill:#ffffff;fill-opacity:1;stroke:none;stroke-width:0.20027463;stroke-opacity:1;paint-order:normal" />
    <path
       transform="matrix(0.82305251,0,0,0.75015993,3.080655,6.7359453)"
       d="m 9.502446,48.295494 9.049324,-0.05817 9.049324,-0.05818 -4.474281,7.866033 -4.47428,7.866032 -4.575044,-7.807857 z"
       id="path13732-3-9"
       style="opacity:1;fill:#e2e8ed;fill-opacity:1;stroke:none;stroke-width:0.26458332;stroke-opacity:1;paint-order:normal" />
    <path
       transform="matrix(0.8230525,0,0,0.75015992,3.1898723,2.1757064)"
       d="m 9.502446,48.295494 9.049324,-0.05817 9.049324,-0.05818 -4.474281,7.866033 -4.47428,7.866032 -4.575044,-7.807857 z"
       id="path13732-3-9-2"
       style="opacity:1;fill:#ffffff;fill-opacity:1;stroke:none;stroke-width:0.26458332;stroke-opacity:1;paint-order:normal" />
    <rect
       ry="3"
       rx="3"
       y="14.124229"
       x="8.2219906"
       height="10.69458"
       width="47.139839"
       id="rect13824"
       style="opacity:1;fill:#474350;fill-opacity:1;stroke:none;stroke-width:0.26458332;stroke-opacity:1;paint-order:normal" />
    <rect
       ry="3"
       rx="3"
       y="27.710468"
       x="8.168992"
       height="10.69458"
       width="47.139839"
       id="rect13824-2"
       style="opacity:1;fill:#474350;fill-opacity:1;stroke:none;stroke-width:0.26458332;stroke-opacity:1;paint-order:normal" />
  </g>
</svg>
